<svg xmlns="http://www.w3.org/2000/svg" width="34.955" height="28.444" viewBox="0 0 34.955 28.444"><path d="M55.055,67.37A14.5,14.5,0,0,1,50.936,68.5a7.2,7.2,0,0,0,3.155-3.97,14.251,14.251,0,0,1-4.555,1.741,7.169,7.169,0,0,0-12.407,4.9,7.021,7.021,0,0,0,.185,1.637,20.324,20.324,0,0,1-14.785-7.5,7.186,7.186,0,0,0,2.23,9.585A7,7,0,0,1,21.5,74v.089a7.178,7.178,0,0,0,5.755,7.037,7.218,7.218,0,0,1-1.889.252,6.765,6.765,0,0,1-1.348-.133,7.183,7.183,0,0,0,6.7,4.985A14.378,14.378,0,0,1,21.811,89.3a14.538,14.538,0,0,1-1.711-.1,20.045,20.045,0,0,0,10.978,3.244C44.285,92.444,51.5,81.5,51.5,72.015c0-.311-.007-.622-.022-.926A14.6,14.6,0,0,0,55.055,67.37Z" transform="translate(-20.1 -64)" fill="#101010"/></svg>